<svg xmlns="http://www.w3.org/2000/svg" viewBox="0 0 20 17.5" role="img" aria-label="Code">
  <g transform="translate(-620, -374)" fill="#59b2f4">
    <path d="M632.316228,374.051317 C632.802747,374.21349 633.081651,374.71338 632.97918,375.203464 L632.948683,375.316228 L628.948683,387.316228 C628.774036,387.840171 628.207716,388.123331 627.683772,387.948683 C627.197253,387.78651 626.918349,387.28662 627.02082,386.796536 L627.051317,386.683772 L631.051317,374.683772 C631.225964,374.159829 631.792284,373.876669 632.316228,374.051317 Z M625.8,377.4 C626.105881,377.807841 626.053113,378.373293 625.695675,378.718504 L625.6,378.8 L622.667,381 L625.6,383.2 C626.007841,383.505881 626.11551,384.063489 625.86903,384.494975 L625.8,384.6 C625.494119,385.007841 624.936511,385.11551 624.505025,384.86903 L624.4,384.8 L620.4,381.8 C619.902222,381.426667 619.869037,380.704889 620.300444,380.285096 L620.4,380.2 L624.4,377.2 C624.841828,376.868629 625.468629,376.958172 625.8,377.4 Z M635.494975,377.13097 L635.6,377.2 L639.6,380.2 C640.097778,380.573333 640.130963,381.295111 639.699556,381.714904 L639.6,381.8 L635.6,384.8 C635.158172,385.131371 634.531371,385.041828 634.2,384.6 C633.894119,384.192159 633.946887,383.626707 634.304325,383.281496 L634.4,383.2 L637.333,381 L634.4,378.8 C633.992159,378.494119 633.88449,377.936511 634.13097,377.505025 L634.2,377.4 C634.505881,376.992159 635.063489,376.88449 635.494975,377.13097 Z"/>
  </g>
</svg>
